<?xml version="1.0" encoding="utf-8"?> <!-- Generator: Adobe Illustrator 16.0.0, SVG Export Plug-In . SVG Version: 6.00 Build 0)  --> <!DOCTYPE svg PUBLIC "-//W3C//DTD SVG 1.1//EN" "http://www.w3.org/Graphics/SVG/1.1/DTD/svg11.dtd"> <svg version="1.1" id="Ebene_1" xmlns="http://www.w3.org/2000/svg" xmlns:xlink="http://www.w3.org/1999/xlink" x="0px" y="0px" width="516.875px" height="221.25px" viewBox="0 0 516.875 221.25" enable-background="new 0 0 516.875 221.25" xml:space="preserve"> <path fill="#0075C9" d="M275.199,4.132l-2.237,2.646c-1.526,1.808-3.063,3.62-4.59,5.428c-5.113,6.047-10.405,12.293-15.49,18.473 l-39.727,47.923l-14.196,17.437c-2.111-4.232-4.59-9.158-7.186-14.171l-13.059-25.434l-8.771-16.585l60.485-20.504l40.01-13.572L275.199,4.132z"/> <path fill="#0075C9" d="M154.999,43.325l5.402,15.581l8.853,24.471c2.233,6.269,4.63,12.624,6.942,18.77l0.938,2.514l-3.024,3.711c-4.286,5.268-8.723,10.715-12.989,16.1l-18.176,22.758l-11.36,14.537l-13.668-7.389l-31.925-17.141l-31.988-17.111L4.982,94.102l0.171-0.7l57.944-19.218L138.8,48.816L154.999,43.325z"/> <path fill="#0075C9" d="M195.018,116.254l7.042,18.857l20.046,51.865c3.443,8.984,6.894,17.775,10.249,26.123l1.201,3.414l-4.118-2.721l-33.719-18.859l-50.983-27.572l15.062-15.092l22.664-23.123C186.658,124.891,190.874,120.557,195.018,116.254z"/> <path fill="#FFFFFF" d="M328.963,129.449h-80.498l4.852-35.271h30.288l-3.542,25.171h20.057l4.33-30.153h-20.192l1.442-10.096h20.189l4.197-30.286h-20.06l-3.54,25.174h-30.285l4.981-35.271h80.501L328.963,129.449z"/> <path fill="#FFFFFF" d="M429.664,38.718l-23.468,45.367l10.751,45.364h-32.383l-4.982-20.457l-10.883,20.457h-32.253l23.468-45.364l-10.75-45.367h32.383l4.983,20.456l10.882-20.456H429.664z"/> <path fill="#FFFFFF" d="M502.544,125.271h-43.288l1.376-9.637h14.388l9.509-67.309h-19.142l-19.801,140.633h-28.902L437.86,38.692h76.82L502.544,125.271z"/> <g> <path fill="#FFFFFF" d="M285.167,188.959h-45.468l7.183-51.242h45.468l-2.741,19.918h-17.105l1.998-14.215h-11.328l-5.628,39.838h11.331l1.998-14.217h17.103L285.167,188.959z"/> <path fill="#FFFFFF" d="M307.453,188.959h-17.03l7.182-51.242h17.031L307.453,188.959z"/> <path fill="#FFFFFF" d="M360.104,188.959h-45.468l5.554-39.84h25.621l-0.814,5.705h-8.516l-3.999,28.434h11.331l5.628-39.838h-28.434l0.812-5.703h45.467L360.104,188.959z"/> <path fill="#FFFFFF" d="M411.936,188.959h-17.033l6.371-45.539h-11.331l-6.44,45.539h-17.033l7.185-51.242h45.468L411.936,188.959z"/> </g> </svg> 